inDegrees=no
num_controls=7
num_derivatives=13
num_iterations=156
num_multipliers=7
num_parameters=0
num_slacks=7
num_states=26
objective=5.390425
objective_accelerations=0.382975
objective_balance=0.020316
objective_effort=0.424165
objective_height=4.465482
objective_ligament=0.097486
solver_duration=1559.848936
status=Solve_Succeeded
success=true
DataType=double
version=3
OpenSimVersion=4.4-2022-07-23-0e9fedc
endheader
time	/jointset/ground_pelvis/pelvis_tilt/value	/jointset/ground_pelvis/pelvis_tx/value	/jointset/ground_pelvis/pelvis_ty/value	/jointset/hip_l/hip_flexion_l/value	/jointset/hip_l/hip_adduction_l/value	/jointset/hip_l/hip_rotation_l/value	/jointset/back/lumbar_extension/value	/jointset/patellofemoral_l/patellar_flexion_l/value	/jointset/knee_l/knee_flexion_l/value	/jointset/knee_l/knee_adduction_l/value	/jointset/knee_l/knee_rotation_l/value	/jointset/ankle_l/ankle_angle_l/value	/jointset/subtalar_l/subtalar_angle_l/value	/jointset/ground_pelvis/pelvis_tilt/speed	/jointset/ground_pelvis/pelvis_tx/speed	/jointset/ground_pelvis/pelvis_ty/speed	/jointset/hip_l/hip_flexion_l/speed	/jointset/hip_l/hip_adduction_l/speed	/jointset/hip_l/hip_rotation_l/speed	/jointset/back/lumbar_extension/speed	/jointset/patellofemoral_l/patellar_flexion_l/speed	/jointset/knee_l/knee_flexion_l/speed	/jointset/knee_l/knee_adduction_l/speed	/jointset/knee_l/knee_rotation_l/speed	/jointset/ankle_l/ankle_angle_l/speed	/jointset/subtalar_l/subtalar_angle_l/speed	/forceset/tau_hip_flexion_l	/forceset/tau_hip_adduction_l	/forceset/tau_hip_rotation_l	/forceset/tau_knee_flexion_l	/forceset/tau_ankle_angle_l	/forceset/tau_subtalar_angle_l	/forceset/tau_lumbar_extension	lambda_cid13_p0	lambda_cid13_p1	lambda_cid13_p2	lambda_cid13_p3	lambda_cid13_p4	lambda_cid13_p5	lambda_cid14_p0	/jointset/ground_pelvis/pelvis_tilt/accel	/jointset/ground_pelvis/pelvis_tx/accel	/jointset/ground_pelvis/pelvis_ty/accel	/jointset/hip_l/hip_flexion_l/accel	/jointset/hip_l/hip_adduction_l/accel	/jointset/hip_l/hip_rotation_l/accel	/jointset/back/lumbar_extension/accel	/jointset/patellofemoral_l/patellar_flexion_l/accel	/jointset/knee_l/knee_flexion_l/accel	/jointset/knee_l/knee_adduction_l/accel	/jointset/knee_l/knee_rotation_l/accel	/jointset/ankle_l/ankle_angle_l/accel	/jointset/subtalar_l/subtalar_angle_l/accel	gamma_cid13_p0	gamma_cid13_p1	gamma_cid13_p2	gamma_cid13_p3	gamma_cid13_p4	gamma_cid13_p5	gamma_cid14_p0
0	-0.03681822863478128	0.05667562755122988	0.9203416711906612	0.3085811930696054	-0.2956391961531143	-0.3015792081817737	-0.3879500408040475	0.2499276582270369	0.249927658227084	-0.1745328925897973	-0.1745054328085482	-0.0008036543073733089	0.0004385703995723579	0	0	0	0	0	0	0	0	0	0	0	0	0	0.04967034370817628	-0.02603034931924629	-0.01657968907886902	-0.2154732970289485	0.1547531009899716	-0.01574105406673293	0.02130923872615615	5.557340148242325	2.905316686822564	2.461222368372862	17.58344398386462	-632.5756779362631	-67.1320022116761	-23.19604539691273	-0.6870368897465674	-1.941465701302645	-0.7626870385284995	7.747053758108479	-0.6157780642927042	2.632140874004545	-6.799069133640659	7.559194105981365	7.559194105981282	1.150385477535171	-0.09110644354134974	0.9345355074352679	-0.3473466578924205	1.319224726231561e-08	8.769592495160259e-08	2.525718094284725e-08	-2.054959930398905e-08	1.222333567979493e-07	2.108832283354193e-08	2.995411135169881e-09
0.01	-0.03684976396774704	0.05658077340213465	0.9203044623953552	0.3089579351045368	-0.2956701269671287	-0.3014467780289567	-0.3882875820856607	0.2502978362605938	0.2502978362606844	-0.174478463468339	-0.1745068273768577	-0.0007573330928864721	0.0004209055024692949	-0.006297288807483442	-0.0187658014160953	-0.007403278577041862	0.07487070351814375	-0.006154631928717614	0.0263969976292898	-0.06698009706782666	0.07368367277499538	0.07368367277499539	0.01082552513037705	-0.000233660422747885	0.009371980230100739	-0.00346224160691337	0.04759365107712275	-0.04030881593397456	-0.0166850885207191	-0.2181514005003948	0.1572610729479812	-0.002549680575515112	0.02470121489889408	6.772086470793853	-2.861659060421601	3.181051387187025	14.16550487857003	-635.4913953493082	-79.13362027099129	-23.20033547514588	-0.5996138254436647	-1.81338720801126	-0.723351747948481	7.285419987208457	-0.610593741315578	2.630124562867104	-6.568256107086801	7.220163172247917	7.220163172248225	1.039607997813281	0.01729380038048928	0.9546935432399436	-0.3350694195971864	-1.207845117128795e-08	9.241626145692485e-08	7.982523027684927e-08	6.928945099101374e-09	1.608991134046929e-08	-1.593031158051037e-08	-2.116147780338724e-09
0.02	-0.03694397997858367	0.05630441126963265	0.9201943801181479	0.310069052442387	-0.2957616616972569	-0.3010530488287531	-0.3892790795606896	0.2513942928837524	0.2513942928837545	-0.1743175847021098	-0.1745092006209151	-0.0006140592236087728	0.0003707368877959101	-0.01253613558290547	-0.03630159668135464	-0.01457469638028492	0.1468750605779788	-0.01212078322358536	0.05225980947762894	-0.1307912386851448	0.145255717909555	0.1452557179095574	0.0212899289417136	-0.0001957351646079177	0.0193905309579098	-0.006500743514081422	0.04551695844599594	-0.05458728254876682	-0.0167904879630065	-0.2208295039718712	0.1597690449059229	0.01064169291561929	0.02809319107163241	8.044536389432562	-8.637365559549261	3.900703911953043	10.67453537004863	-637.5317377019168	-91.0613712191782	-23.21289886130339	-0.6753484833355462	-1.695464471134299	-0.71631488376872	7.173784466446509	-0.5780819375228455	2.525303717814561	-6.165278043539608	7.13686857789398	7.136868577894374	1.078161213726765	-0.03678930736357217	1.063849606978186	-0.2625987179430393	-3.73491496048915e-08	9.713659796224711e-08	1.343932796108513e-07	3.44074895021918e-08	-9.005353411701069e-08	-5.294894599456267e-08	-7.227706695847329e-09
0.03	-0.0371000242593957	0.0558577556801608	0.9200134829184849	0.3118871842783384	-0.2959118511869296	-0.3004043586030818	-0.3908938317008613	0.2531962690863755	0.2531962690864034	-0.1740537391091447	-0.1745108816725029	-0.0003687404851349552	0.0002919005207925456	-0.01861750492838268	-0.0529326728611448	-0.02158886508448711	0.2163774156226856	-0.01788371989057552	0.0773384394277067	-0.1917500498588325	0.2148117755861266	0.2148117755861298	0.03141596789956289	-0.0001517765909942568	0.0296432095316399	-0.009241387856870198	0.03940242062576287	-0.04681704816043286	-0.01605534842845221	-0.2153993141120291	0.1554514486494719	0.007120413130706927	0.03345187743207308	6.473747809752187	-6.922362601698043	3.729313423572514	11.03664760851429	-638.9126871797603	-86.66459063583547	-23.23318673033924	-0.56625218699994	-1.632394942998068	-0.6916045330840097	6.782371744675326	-0.5704213536205436	2.47815669451924	-5.999811732593694	6.815813773809491	6.815813773809588	0.970371092091594	0.02331372987182924	1.001476667306206	-0.2760567671867639	-5.133886743268485e-08	8.160181224795514e-08	1.755044832570204e-07	4.645483292219998e-08	-1.491525013143331e-07	-7.992007965751502e-08	-1.325587175231947e-08
0.04	-0.03731522643899012	0.05524769617857538	0.9197629166979128	0.3143891218089952	-0.2961186744077354	-0.299509079265725	-0.393105897768422	0.255683973748015	0.2556839737480199	-0.1736905239555148	-0.1745124580803295	-2.179502397577677e-05	0.0001864058154134546	-0.02436771534785461	-0.06898237910407007	-0.02850850056209181	0.2836361995151487	-0.02344752945087402	0.1015776318143818	-0.2502540241650927	0.2824014097135227	0.2824014097135248	0.04116384106849563	-0.0001748064114488157	0.03971587549481152	-0.01183241118925913	0.03328788280539215	-0.03904681377219157	-0.01532020889383985	-0.2099691242523152	0.1511338523929374	0.003599133345669948	0.03881056379248807	4.956996975007044	-5.213816292847459	3.555519792874059	11.321671091196	-639.4876082677712	-82.19592912693483	-23.26063767373461	-0.6091166981357281	-1.57919048376021	-0.6974082384491986	6.725070235997553	-0.5382565161846069	2.357416205134174	-5.674310670054766	6.743583868058653	6.743583868058664	1.002528055943208	-0.05018698617701739	1.027847084867701	-0.2326745158627407	-6.509598772221407e-08	6.564939514769175e-08	2.163382261673579e-07	5.818400724977347e-08	-2.072814792691781e-07	-1.066840483565272e-07	-1.930293590448159e-08
0.05	-0.03758667733455991	0.0544803251136778	0.9194435042089377	0.3175526803054439	-0.296380020141647	-0.2983756197306788	-0.395890295601595	0.2588378798708005	0.2588378798708268	-0.1732315895760971	-0.1745145623175492	0.0004253421390528407	5.599485183894737e-05	-0.02988458597450514	-0.08436641796139639	-0.03536615560237499	0.348688151512745	-0.02877950343996242	0.1249939204775637	-0.3061982024831513	0.3480452921442165	0.3480452921442183	0.05055919501019026	-0.0002288733558423672	0.04971285680048954	-0.01420546190801519	0.02792255092819596	-0.03900779262247741	-0.0147504347751815	-0.2070655738807719	0.1482106533750142	0.006331617954950342	0.04383525994511875	4.115724724949551	-6.249273052397243	3.716075977378011	10.65345363403599	-640.3949126366484	-83.63150673969837	-23.29453925619347	-0.5172926978090473	-1.499186465037621	-0.6788098181970051	6.337148606946678	-0.5243855651694279	2.315650735367333	-5.490370416490105	6.424615934313302	6.42461593431339	0.8984940224258935	0.0195948409848632	0.9858177518743718	-0.2330074178749496	-7.618720163676393e-08	4.50617524608479e-08	2.45054710234101e-07	6.825836208570502e-08	-2.576349147612487e-07	-1.280553779791988e-07	-2.42448104188623e-08
0.06	-0.03791216102693386	0.05356287848454654	0.9190557420332843	0.3213551365069606	-0.2966934291604282	-0.2970116142013138	-0.3992213150187009	0.2626381899186537	0.2626381899186576	-0.1726806106654266	-0.1745166849462867	0.0009724879348304639	-9.682403252157515e-05	-0.03517427471648978	-0.09899749195080265	-0.04217843789773208	0.4114157405226149	-0.033860186424978	0.1476868306790362	-0.359578340953709	0.4116821947244487	0.4116821947244503	0.05957274731760798	-0.000178484718012722	0.05971760204443888	-0.01631399534648595	0.02255721905100661	-0.03896877147279991	-0.014180660656578	-0.2041620235092342	0.1452874543570643	0.009064102564184516	0.0488599560977753	3.322852919714593	-7.291828531451754	3.8761922484514	9.909848821638718	-640.5770941249019	-85.00383048642955	-23.33404960593806	-0.563680321203752	-1.428597510175128	-0.6883336894639599	6.260197638452026	-0.4879983153701327	2.212740512792422	-5.161502700555228	6.342187897966101	6.342187897966178	0.9261677290875917	-0.02929586973218126	1.029399872523141	-0.1797710598053579	-8.716616686184096e-08	2.42789423808849e-08	2.732609939284822e-07	7.826304031146216e-08	-3.076609589917288e-07	-1.491996491144455e-07	-2.914015063270485e-08
0.07000000000000001	-0.03828958238463848	0.05250280412786747	0.9185999599027308	0.3257737398493578	-0.2970563660618511	-0.2954247754226514	-0.4030733859342897	0.2670651486016849	0.267065148601671	-0.1720413329173071	-0.1745183173971794	0.001619668500166947	-0.0002693977920124669	-0.040266361281351	-0.1128989660773542	-0.04897824607915021	0.4719232558568961	-0.03868610033240541	0.1695440926692376	-0.410440299649806	0.4733776671834491	0.4733776671834511	0.06820884228630134	-0.0001468679467735016	0.06970657851275215	-0.01816217665422575	0.01688942931949444	-0.03667361228407456	-0.01359442521777093	-0.2012889199613856	0.1427523953353953	0.009761135257045299	0.05403136021507134	2.559559581789526	-7.473960341104733	3.920143992857683	9.396785798461339	-640.9250909686042	-84.52445786282365	-23.3782089036432	-0.4754278428923321	-1.353144590988725	-0.6759052009018329	5.888770487554188	-0.4737581891254587	2.15165180953698	-4.989211078623677	6.033451602456435	6.033451602456607	0.8212650835716484	0.01960888264795076	0.9818539692879975	-0.1815894377399775	-9.522744581693234e-08	-1.205418434257497e-08	2.956522024463311e-07	8.324176045096e-08	-3.441341174419587e-07	-1.693779204331083e-07	-3.51456226467769e-08
0.08	-0.0387166156117074	0.05130727058450733	0.9180761595266791	0.3307859667464492	-0.2974663361544876	-0.2936234774706104	-0.4074222101617305	0.2720991069457857	0.2720991069457908	-0.171317907278941	-0.174519589993998	0.002366380317248007	-0.0004593029188769596	-0.04509664859696931	-0.1260893292870183	-0.05578208699734506	0.5301404514567262	-0.04326682466768943	0.190578665355555	-0.4589290033255167	0.5330821269460236	0.5330821269460262	0.07640232536744782	-0.0001065138916838232	0.07962385239317994	-0.01978026882122976	0.01122163958795608	-0.03437845309534854	-0.01300818977859522	-0.1984158164136063	0.1402173363137091	0.01045816794989584	0.05920276433235067	1.839973648730907	-7.66182593354494	3.962817858857714	8.809636953519862	-640.6251659301571	-83.98708514417166	-23.42602411875764	-0.5113204713563473	-1.28637532679659	-0.6891402368192774	5.802133691561572	-0.4389604009415315	2.048202652015731	-4.6868516964786	5.943985358680721	5.943985358680826	0.8376453515779977	-0.02754841296188974	1.015059354947178	-0.1337532316578871	-1.031004869481537e-07	-4.939055730109911e-08	3.176682448237584e-07	8.789622523005401e-08	-3.797328961644304e-07	-1.894938691829592e-07	-4.122271606731536e-08
0.09	-0.03919095783497361	0.04998335721501967	0.917484194529068	0.3363695453421517	-0.2979208423657006	-0.2916162037456323	-0.4122438270646844	0.2777205154498562	0.2777205154498608	-0.1705146016084407	-0.174520751591892	0.00321195609619583	-0.0006641739181840218	-0.04973647282467142	-0.1385768871311574	-0.06261749135115877	0.5862124577062489	-0.04759014550547484	0.2107432594249717	-0.5050005332544057	0.5908727258948179	0.5908727258948272	0.08418599568985595	-0.0001205698007320458	0.0894755405782315	-0.02115364026233509	0.005280296296650435	-0.03243169145480787	-0.01240312316259061	-0.1957485009493695	0.1375486155244701	0.01157288398470311	0.06458293459913007	1.068580187659732	-8.016745240847984	4.026099194750714	8.326311888107334	-640.6507152501638	-83.79359743973187	-23.47641791402458	-0.4350135067842347	-1.212459734080719	-0.6818038804384254	5.455305765766431	-0.4224046739290909	1.980611452411998	-4.508227040994099	5.647578309439309	5.647578309440382	0.7378254244634456	0.0125095142448769	0.9678542677908372	-0.1331133595650757	-1.084986052681331e-07	-8.406488985971602e-08	3.336929005596922e-07	9.008372343926934e-08	-4.026860548609484e-07	-2.049332488119672e-07	-4.641358519351582e-08
